<svg width="650" height="650" viewBox="0 0 650 650" fill="none" xmlns="http://www.w3.org/2000/svg">
<path d="M246.906 361.056H293.946C281.316 360.319 268.797 358.262 256.594 354.92C254.699 354.41 252.892 353.617 251.235 352.567C249.577 355.281 248.129 358.119 246.906 361.056Z" fill="#E6E7E8"/>
<path d="M508.329 360.289C503.695 339.225 474.035 341.731 473.739 341.764C473.584 341.785 473.442 341.866 473.344 341.989C473.247 342.113 473.2 342.269 473.215 342.426C473.23 342.582 473.304 342.727 473.423 342.83C473.542 342.934 473.696 342.987 473.853 342.979C474.142 342.953 502.733 340.548 507.137 360.555C507.172 360.713 507.269 360.851 507.405 360.938C507.542 361.025 507.708 361.053 507.866 361.018C508.024 360.983 508.162 360.886 508.249 360.749C508.336 360.612 508.365 360.447 508.329 360.289Z" fill="#081735"/>
<path d="M482.722 327.568C488.758 325.182 484.37 330.996 479.372 335.553C482.985 335.123 486.626 334.978 490.262 335.117C491.237 335.293 492.297 336.645 486.294 338.332C478.286 340.438 470.528 343.404 463.157 347.178L462.28 338.033C473.415 333.392 478.813 329.111 482.722 327.568Z" fill="#E6E7E8"/>
<path d="M463.638 352.245L464.23 358.394C465.48 358.227 466.739 358.127 468 358.095C478.666 357.91 474.896 355.3 471.195 354.247C469.3 353.704 466.128 353.067 463.638 352.245Z" fill="#E6E7E8"/>
<path d="M462.046 337.47C476.512 331.438 483.902 324.308 485.972 326.921C487.318 328.608 482.693 333.2 481.149 334.721C484.206 334.299 487.301 334.232 490.373 334.523C490.691 334.551 490.989 334.687 491.219 334.908C491.449 335.129 491.596 335.422 491.637 335.738C491.79 338.852 481.338 339.118 465.822 346.317C465.127 346.743 464.35 347.207 463.46 347.718C463.319 347.798 463.152 347.819 462.995 347.777C462.838 347.734 462.705 347.631 462.624 347.49C462.544 347.349 462.523 347.182 462.565 347.025C462.608 346.869 462.711 346.735 462.852 346.655C464.96 345.484 466.984 344.165 468.907 342.709C472.395 340.366 475.75 337.831 478.956 335.114C481.695 332.625 485.228 328.689 485.03 327.704C484.767 327.542 483.19 327.798 478.718 330.33C473.507 333.446 468.093 336.211 462.514 338.608C462.363 338.67 462.194 338.669 462.043 338.607C461.893 338.544 461.773 338.424 461.711 338.273C461.649 338.122 461.65 337.953 461.712 337.802C461.775 337.652 461.895 337.532 462.046 337.47ZM490.428 335.845C490.351 335.779 490.256 335.737 490.155 335.725C486.651 335.465 483.129 335.6 479.654 336.128C476.774 338.583 473.748 340.862 470.593 342.953C475.634 340.831 480.827 339.093 486.128 337.753C490.038 336.645 490.392 335.839 490.425 335.839L490.428 335.845Z" fill="#081735"/>
<path d="M464.23 359.005C465.487 358.838 466.752 358.739 468.019 358.706C474.477 358.595 475.472 357.624 475.595 356.691C475.81 355.066 472.413 353.958 471.37 353.659C469.121 353.009 466.398 352.511 463.83 351.663C463.676 351.612 463.508 351.625 463.363 351.698C463.218 351.771 463.108 351.899 463.057 352.053C463.006 352.207 463.018 352.375 463.092 352.521C463.165 352.666 463.292 352.776 463.447 352.827C466.047 353.678 469.04 354.27 471.035 354.835C473.151 355.436 474.321 356.262 474.383 356.554C474.383 356.554 473.827 357.383 467.997 357.484C466.711 357.515 465.427 357.617 464.152 357.789C464 357.811 463.862 357.89 463.766 358.009C463.669 358.129 463.621 358.28 463.631 358.433C463.64 358.586 463.707 358.73 463.819 358.836C463.93 358.942 464.077 359.002 464.23 359.005Z" fill="#081735"/>
<path d="M243.483 371.8H397.689L454.373 489.531C451.702 491.883 448.867 494.042 445.89 495.992L454.373 513.968C442.162 517.321 429.298 517.504 416.998 514.498L413.871 507.159C410.74 507.47 407.593 507.605 404.446 507.566L382.346 467.246L388.95 500.64C385.941 502.132 382.845 503.441 379.678 504.559L382.216 514.498C371.093 517.685 359.299 517.685 348.176 514.498L347.162 509.814C344.154 509.801 341.13 509.668 338.088 509.415L313.644 410.439L306.264 411.567L254.78 407.423L252.08 405.187C241.15 395.229 240.948 382.272 243.483 371.8Z" fill="#E6E7E8"/>
<path d="M322.862 361.043C326.157 361.413 328.819 357.364 333.424 353.512C336.778 350.717 338.13 348.797 340.649 350.555C354.39 360.159 358.091 358.894 356.073 356.714C352.901 353.311 350.838 350.747 348.956 348.361C365.339 355.186 367.871 351.952 365.108 350.48C360.747 348.166 355.739 345.657 351.481 343.21C370.113 348.598 375.557 345.066 372.508 344.091C366.502 342.173 360.028 340.36 354.068 338.302C370.584 340.512 369.515 337.844 363.688 336.245C357.23 334.48 343.863 330.58 342.66 330.58C341.387 330.685 340.131 330.945 338.92 331.354C343.866 320.015 340.632 319.329 338.952 322.218C336.576 326.163 333.722 329.799 330.453 333.044C329.69 333.885 328.844 334.647 327.928 335.319L320.427 338.104L319.322 343.824C318.139 352.921 319.712 360.688 322.862 361.043Z" fill="#E6E7E8"/>
<path d="M293.475 235.3C294.645 235.826 298.301 247.676 294.674 254.072C300.644 256.006 307.252 257.153 312.455 253.597C310.922 251.987 309.747 250.071 309.007 247.975L303.101 242.45C304.708 242.912 306.367 243.167 308.038 243.21C324.083 243.444 308.776 219.31 308.477 219.31C300.586 208.279 295.266 220.025 295.773 226.918C295.672 228.293 295.012 228.67 292.792 227.042C288.259 223.727 284.973 231.484 293.475 235.3Z" fill="#E6E7E8"/>
<path d="M450.57 286.887C453.233 287.096 455.896 286.497 458.213 285.168C460.53 283.839 462.392 281.843 463.557 279.44C464.722 277.036 465.135 274.338 464.742 271.696C464.35 269.054 463.169 266.592 461.356 264.632C459.543 262.671 457.18 261.303 454.577 260.705C451.974 260.108 449.251 260.309 446.765 261.283C444.278 262.257 442.142 263.958 440.637 266.164C439.132 268.371 438.327 270.979 438.328 273.65C438.204 277.027 439.423 280.315 441.717 282.795C444.011 285.276 447.194 286.747 450.57 286.887ZM450.57 261.631C452.991 261.422 455.418 261.948 457.534 263.141C459.65 264.335 461.357 266.139 462.43 268.318C463.503 270.498 463.893 272.951 463.549 275.355C463.205 277.76 462.143 280.005 460.502 281.796C458.86 283.587 456.716 284.841 454.35 285.393C451.985 285.945 449.507 285.769 447.243 284.89C444.978 284.01 443.032 282.467 441.66 280.462C440.287 278.458 439.551 276.086 439.549 273.657C439.423 270.601 440.511 267.62 442.576 265.366C444.641 263.111 447.516 261.766 450.57 261.625V261.631Z" fill="#081735"/>
<path d="M449.566 258.278C450.06 258.278 450.661 258.245 450.613 257.608C450.58 256.364 450.287 255.141 449.754 254.018C449.221 252.894 448.458 251.894 447.516 251.082C446.573 250.27 445.471 249.664 444.281 249.303C443.09 248.942 441.837 248.834 440.603 248.986C440.442 248.997 440.292 249.072 440.186 249.194C440.08 249.316 440.026 249.475 440.037 249.636C440.268 252.108 441.365 254.42 443.134 256.162C444.976 257.576 447.244 258.322 449.566 258.278ZM441.35 250.201C443.304 250.089 445.226 250.74 446.71 252.018C448.193 253.295 449.121 255.099 449.3 257.049C447.345 257.162 445.423 256.51 443.94 255.233C442.457 253.955 441.528 252.151 441.35 250.201Z" fill="#081735"/>
<path d="M426.969 167.602H463.694C463.774 167.602 463.853 167.587 463.928 167.556C464.002 167.525 464.069 167.48 464.126 167.424C464.183 167.367 464.228 167.299 464.258 167.225C464.289 167.151 464.305 167.072 464.305 166.991V130.266C464.305 130.104 464.24 129.949 464.126 129.834C464.011 129.72 463.856 129.655 463.694 129.655H426.969C426.807 129.655 426.651 129.72 426.537 129.834C426.422 129.949 426.358 130.104 426.358 130.266V166.991C426.358 167.072 426.374 167.151 426.404 167.225C426.435 167.299 426.48 167.367 426.537 167.424C426.593 167.48 426.661 167.525 426.735 167.556C426.809 167.587 426.888 167.602 426.969 167.602ZM463.07 166.38H427.583V130.89H463.07V166.38Z" fill="#081735"/>
<path d="M433.209 108.615C434.066 108.617 434.899 108.9 435.58 109.42C436.261 109.94 436.753 110.669 436.981 111.495C437.209 112.322 437.159 113.2 436.841 113.995C436.522 114.791 435.952 115.461 435.217 115.902L445.877 138.382C445.947 138.528 445.955 138.696 445.9 138.849C445.846 139.002 445.733 139.126 445.586 139.196C445.44 139.265 445.272 139.274 445.119 139.219C444.966 139.165 444.842 139.052 444.772 138.905L434.08 116.353C433.541 116.478 432.982 116.487 432.44 116.38C431.898 116.274 431.384 116.053 430.933 115.734C430.482 115.415 430.103 115.004 429.822 114.528C429.541 114.052 429.364 113.522 429.302 112.973C429.24 112.424 429.295 111.868 429.463 111.341C429.632 110.815 429.909 110.33 430.278 109.918C430.647 109.507 431.099 109.178 431.604 108.953C432.109 108.729 432.656 108.613 433.209 108.615Z" fill="#081735"/>
<path d="M551.044 431.093H564.454V417.661C564.447 417.578 564.458 417.495 564.486 417.416C564.514 417.338 564.557 417.266 564.614 417.205C564.67 417.144 564.739 417.095 564.815 417.062C564.891 417.029 564.973 417.012 565.056 417.012C565.139 417.012 565.222 417.029 565.298 417.062C565.374 417.095 565.443 417.144 565.499 417.205C565.556 417.266 565.599 417.338 565.627 417.416C565.654 417.495 565.665 417.578 565.659 417.661V431.073H579.092C579.251 431.073 579.404 431.137 579.517 431.25C579.629 431.362 579.693 431.515 579.693 431.675C579.693 431.834 579.629 431.987 579.517 432.1C579.404 432.213 579.251 432.276 579.092 432.276H565.679V445.708C565.679 445.868 565.615 446.021 565.503 446.133C565.39 446.246 565.237 446.309 565.078 446.309C564.918 446.309 564.765 446.246 564.652 446.133C564.54 446.021 564.476 445.868 564.476 445.708V432.295H551.041C550.962 432.295 550.884 432.279 550.811 432.249C550.738 432.219 550.672 432.174 550.616 432.118C550.56 432.062 550.516 431.996 550.486 431.923C550.456 431.85 550.441 431.772 550.441 431.693C550.441 431.614 550.457 431.535 550.488 431.463C550.518 431.39 550.562 431.324 550.618 431.268C550.674 431.212 550.741 431.168 550.814 431.138C550.887 431.108 550.965 431.093 551.044 431.093Z" fill="#081735"/>
<path d="M114.173 415.35C114.298 413.913 114.067 412.467 113.5 411.14C112.933 409.813 112.048 408.647 110.922 407.744C109.797 406.841 108.467 406.229 107.049 405.963C105.631 405.697 104.169 405.785 102.793 406.219C101.417 406.653 100.169 407.419 99.1598 408.45C98.1506 409.481 97.4112 410.745 97.007 412.13C96.6029 413.515 96.5465 414.978 96.8428 416.39C97.1391 417.802 97.779 419.119 98.7058 420.225C99.8211 421.556 101.306 422.525 102.973 423.012C104.639 423.498 106.413 423.479 108.069 422.957C109.724 422.435 111.188 421.434 112.275 420.08C113.361 418.726 114.022 417.08 114.173 415.35ZM105.424 407.03C106.694 407.029 107.944 407.348 109.058 407.958C110.172 408.568 111.115 409.449 111.798 410.52C112.481 411.591 112.883 412.817 112.967 414.084C113.051 415.352 112.814 416.62 112.278 417.772C111.741 418.923 110.923 419.921 109.899 420.672C108.875 421.424 107.678 421.905 106.419 422.071C105.159 422.237 103.878 422.083 102.694 421.623C101.51 421.163 100.462 420.411 99.6451 419.438C98.7263 418.336 98.14 416.995 97.9547 415.573C97.7694 414.15 97.9927 412.703 98.5986 411.403C99.2045 410.102 100.168 409 101.376 408.227C102.585 407.453 103.989 407.039 105.424 407.033V407.03Z" fill="#081735"/>
<path d="M299.325 271.681C299.347 271.109 299.59 270.567 300.002 270.171C300.414 269.774 300.964 269.552 301.537 269.552C302.109 269.552 302.659 269.774 303.071 270.171C303.484 270.567 303.726 271.109 303.748 271.681C303.726 272.252 303.484 272.794 303.071 273.19C302.659 273.587 302.109 273.809 301.537 273.809C300.964 273.809 300.414 273.587 300.002 273.19C299.59 272.794 299.347 272.252 299.325 271.681Z" fill="#081735"/>
<path d="M320.652 292.194C320.652 291.608 320.884 291.046 321.299 290.632C321.713 290.217 322.275 289.984 322.862 289.984C323.448 289.984 324.01 290.217 324.424 290.632C324.839 291.046 325.072 291.608 325.072 292.194C325.072 292.781 324.839 293.343 324.424 293.757C324.01 294.172 323.448 294.404 322.862 294.404C322.275 294.404 321.713 294.172 321.299 293.757C320.884 293.343 320.652 292.781 320.652 292.194Z" fill="#081735"/>
<path d="M304.067 315.442C304.067 314.855 304.3 314.292 304.715 313.877C305.13 313.462 305.693 313.228 306.28 313.228C306.867 313.228 307.43 313.462 307.845 313.877C308.26 314.292 308.493 314.855 308.493 315.442C308.493 316.029 308.26 316.592 307.845 317.007C307.43 317.422 306.867 317.655 306.28 317.655C305.693 317.655 305.13 317.422 304.715 317.007C304.3 316.592 304.067 316.029 304.067 315.442Z" fill="#081735"/>
<path d="M16.7765 539.5H343.392C343.245 530.976 344.649 522.497 347.535 514.475L346.609 510.429C343.631 510.44 340.654 510.264 337.698 509.902C337.438 509.649 339.355 517.117 313.18 411.145L306.215 412.191L293.992 411.216C293.852 411.206 293.719 411.147 293.617 411.051C293.515 410.954 293.449 410.826 293.431 410.686C293.413 410.547 293.443 410.406 293.517 410.286C293.59 410.167 293.703 410.076 293.836 410.03L311.893 403.66C311.973 403.631 312.059 403.62 312.145 403.627C312.23 403.633 312.313 403.657 312.388 403.698C312.464 403.738 312.53 403.794 312.583 403.861C312.636 403.928 312.674 404.006 312.695 404.089C313.085 405.675 338.37 508.089 338.572 508.862C344.046 509.301 349.545 509.335 355.023 508.963L332.485 401.876C332.171 400.38 331.564 398.961 330.699 397.701C329.833 396.442 328.726 395.366 327.442 394.537C326.158 393.709 324.722 393.143 323.218 392.873C321.714 392.603 320.171 392.634 318.679 392.964C285.36 400.342 255.71 395.684 259.204 361.689H247.325C240.35 378.365 240.467 395.814 254.891 406.741L254.956 406.796L252.775 406.621C238.969 395.132 239.307 377.445 246.356 360.844C247.523 358.064 248.88 355.366 250.416 352.771C247.233 350.636 244.739 347.621 243.239 344.093C241.738 340.566 241.296 336.678 241.966 332.904C245.115 315.01 253.061 282.318 262.87 273.286C270.928 266.408 280.122 260.985 290.04 257.26C291.291 256.811 292.408 256.052 293.287 255.055C294.166 254.058 294.778 252.854 295.067 251.557C295.155 249.984 295.578 234.023 277.192 230.653C276.218 230.435 275.327 229.943 274.623 229.236C273.918 228.529 273.43 227.636 273.216 226.661C273.002 225.686 273.071 224.67 273.414 223.733C273.758 222.796 274.362 221.976 275.155 221.371C276.154 220.619 277.369 220.211 278.619 220.207C278.211 219.271 278.075 218.239 278.227 217.229C278.378 216.219 278.812 215.272 279.477 214.497C280.143 213.722 281.013 213.151 281.989 212.848C282.964 212.546 284.005 212.525 284.992 212.787C284.813 211.861 284.876 210.904 285.176 210.009C285.475 209.114 286.001 208.312 286.703 207.681C287.404 207.049 288.257 206.61 289.178 206.406C290.099 206.201 291.058 206.239 291.96 206.515C291.792 205.288 292.045 204.041 292.678 202.977C293.311 201.913 294.286 201.096 295.444 200.659C296.603 200.222 297.875 200.191 299.053 200.572C300.231 200.953 301.245 201.722 301.928 202.755C304.165 209.388 307.126 215.754 310.758 221.738C316.251 231.358 319.832 243.513 308.724 243.838C309.033 247.211 310.411 250.398 312.656 252.936C314.901 255.473 317.896 257.228 321.207 257.946C341.357 263.647 354.877 303.911 366.463 321.727L432.149 332.378C432.229 332.391 432.305 332.419 432.373 332.461C432.441 332.504 432.501 332.559 432.548 332.625C432.642 332.757 432.681 332.921 432.655 333.081C432.628 333.241 432.539 333.385 432.407 333.48C432.276 333.574 432.111 333.613 431.951 333.587L425.639 332.56C420.257 340.975 418.372 351.16 420.387 360.945C420.416 361.104 420.381 361.269 420.288 361.402C420.196 361.535 420.055 361.626 419.895 361.655C419.736 361.684 419.571 361.648 419.438 361.556C419.305 361.464 419.214 361.322 419.185 361.163C417.201 351.253 419.039 340.959 424.33 332.348C368.826 323.33 366.187 322.956 365.859 322.836C364.63 322.368 355.667 304.463 355.105 303.336C346.066 285.383 334.815 263.036 320.85 259.087C318.448 258.438 316.183 257.36 314.164 255.905L316.439 261.004C316.49 261.12 316.503 261.248 316.479 261.371C316.454 261.495 316.391 261.608 316.3 261.694C316.209 261.781 316.093 261.838 315.969 261.857C315.844 261.876 315.717 261.856 315.604 261.801L306.358 257.117C313.004 274.667 316.319 297.512 316.491 326.814C322.826 327.233 327.291 327.418 326.963 327.428C328.149 327.447 329.719 328.253 330.749 331.793C331.464 331.039 332.199 330.233 332.94 329.381C335.897 316.471 336.094 303.083 333.518 290.092C333.486 289.933 333.519 289.768 333.609 289.633C333.699 289.498 333.839 289.404 333.998 289.372C334.157 289.34 334.322 289.373 334.457 289.462C334.592 289.552 334.686 289.692 334.717 289.851C337.152 302.216 337.137 314.939 334.672 327.298C336.049 325.594 337.302 323.795 338.422 321.913C339.241 320.505 340.372 319.862 341.25 320.288C342.816 321.081 342.358 324.672 339.966 330.441C343.616 329.485 341.526 329.537 363.85 335.641C365.924 336.209 368.355 337.158 368.163 338.442C368.027 339.352 366.769 339.758 364.01 339.758C358.556 339.758 356.226 338.263 372.69 343.496C376.106 344.578 373.574 349.187 356.167 345.062C357.766 345.917 363.967 349.164 365.397 349.937C368.29 351.475 367.575 356.337 350.883 349.798C352.404 351.679 354.152 353.75 356.518 356.298C357.591 357.455 357.107 358.196 356.931 358.397C355.504 360.022 349.131 357.224 340.301 351.055C338.647 349.898 337.766 350.545 335.267 352.732C337.784 355.959 341.171 358.401 345.028 359.769C348.885 361.138 353.053 361.377 357.042 360.458C357.202 360.43 357.366 360.466 357.499 360.559C357.632 360.653 357.722 360.795 357.75 360.955C357.778 361.115 357.742 361.279 357.648 361.412C357.555 361.545 357.413 361.635 357.253 361.663C353.058 362.613 348.68 362.353 344.626 360.915C340.572 359.477 337.009 356.919 334.35 353.538C329.316 357.861 326.534 361.663 323.3 361.663H260.468C259.317 372.577 261.592 380.884 267.257 386.396C279.406 398.219 304.538 394.823 318.438 391.745C320.089 391.379 321.796 391.344 323.46 391.642C325.124 391.94 326.713 392.566 328.133 393.483C329.554 394.399 330.779 395.588 331.737 396.982C332.695 398.375 333.366 399.944 333.713 401.599L356.284 508.849C367.396 508.044 378.255 505.141 388.287 500.295C349.612 304.723 379.246 454.542 367.575 395.525C366.369 389.335 363.335 383.649 358.864 379.202C354.393 374.755 348.691 371.751 342.495 370.578C342.335 370.547 342.194 370.455 342.103 370.32C342.012 370.186 341.978 370.021 342.009 369.861C342.039 369.702 342.132 369.561 342.267 369.47C342.401 369.379 342.566 369.345 342.725 369.376C349.161 370.594 355.083 373.714 359.726 378.332C364.37 382.951 367.521 388.856 368.774 395.285L373.197 417.651L424.996 504.569C435.596 501.817 445.401 496.611 453.619 489.372L397.15 372.073C397.08 371.927 397.07 371.759 397.124 371.606C397.178 371.453 397.29 371.328 397.436 371.257C397.582 371.187 397.75 371.178 397.903 371.231C398.056 371.285 398.181 371.397 398.252 371.543C457.684 495.277 455.234 489.375 454.854 489.915C452.273 492.217 449.528 494.328 446.641 496.233L454.818 513.458C469.348 518.45 482.152 527.484 491.725 539.5H633.054C633.506 539.5 634.608 541.125 632.921 541.219C625.297 541.707 558.171 541.024 16.7829 541.024C15.9737 541.015 15.9672 539.5 16.7765 539.5ZM251.426 353.415C250.085 355.686 248.884 358.037 247.829 360.454H259.35C259.508 359.154 259.716 357.815 259.974 356.437C256.984 355.889 254.102 354.865 251.436 353.405L251.426 353.415ZM295.399 254.95L296.28 262.171L303.469 256.477C300.725 256.31 298.014 255.797 295.399 254.95ZM314.2 239.727C316.417 234.852 311.473 225.306 309.146 221.419C307.502 218.673 304.388 214.594 301.324 215.54C298.473 216.431 296.887 220.955 296.484 223.99C296.159 226.532 296.653 227.24 296.036 228.176C295.386 229.151 294.154 228.664 293.153 228.03C292.36 227.529 291.564 226.701 290.374 226.873C288.067 227.198 287.7 231.823 293.299 234.559L293.715 234.754C295.464 235.547 298.616 247.224 295.539 253.718C300.739 255.343 306.845 256.318 311.503 253.481C310.186 251.965 309.159 250.22 308.474 248.333C302.087 242.349 302.396 242.772 302.513 242.265C302.936 241.228 303.813 242.502 307.921 242.59C310.547 242.596 313.095 242.148 314.2 239.727ZM312.188 254.504C310.712 255.395 309.078 255.993 307.375 256.266L314.629 259.942L312.188 254.504ZM304.96 256.854C295.535 264.329 296.13 263.936 295.805 263.936C295.656 263.936 295.512 263.882 295.4 263.783C295.288 263.684 295.216 263.548 295.197 263.4L294.265 255.752C293.253 256.964 291.929 257.876 290.436 258.388C280.672 262.055 271.62 267.393 263.685 274.164C255.356 281.83 247.205 310.086 243.158 333.093C242.353 337.691 243.303 342.424 245.82 346.356C248.337 350.288 252.237 353.133 256.75 354.328C268.908 357.652 281.38 359.702 293.962 360.445H306.036C303.488 346.736 304.769 335.686 309.855 327.581C297.306 326.787 284.828 325.124 272.509 322.602C272.351 322.567 272.212 322.471 272.124 322.334C272.037 322.198 272.007 322.032 272.041 321.874C272.076 321.715 272.172 321.577 272.308 321.489C272.445 321.401 272.611 321.371 272.769 321.406C274.921 321.877 277.062 322.303 279.159 322.68C280.024 313.447 281.623 304.297 283.939 295.318L283.978 295.217C284.028 295.108 284.109 295.016 284.211 294.953C284.313 294.889 284.431 294.857 284.551 294.861C284.671 294.865 284.787 294.904 284.885 294.974C284.982 295.044 285.057 295.141 285.1 295.253C285.197 295.578 285.142 293.914 285.142 323.684C294.804 325.15 305.565 326.092 315.279 326.745C315.107 297.239 311.727 274.355 304.96 256.854ZM311.246 327.685C306.01 335.611 304.678 346.629 307.284 360.445H320.775C318.601 357.845 317.775 351.169 318.731 343.701L319.845 337.938C320.521 334.436 322.142 331.186 324.532 328.539C319.78 328.273 315.367 327.99 311.246 327.685ZM340.697 321.389C340.597 321.337 340.047 321.578 339.479 322.527C337.04 326.524 334.132 330.215 330.817 333.522C333.157 332.634 336.043 331.601 338.458 330.879C341.549 323.723 341.003 321.545 340.697 321.389ZM333.599 352.567C332.746 351.409 332.017 350.165 331.425 348.855C331.364 348.705 331.366 348.536 331.429 348.387C331.493 348.238 331.613 348.12 331.763 348.059C331.914 347.998 332.082 347.999 332.231 348.063C332.381 348.126 332.499 348.246 332.559 348.397C333.092 349.584 333.746 350.713 334.509 351.767C336.898 349.674 338.487 348.306 341.009 350.058C351.734 357.533 355.582 357.9 355.979 357.682C355.943 357.136 355.449 357.52 346.421 346.132C346.319 346.005 346.273 345.843 346.291 345.682C346.309 345.521 346.39 345.373 346.517 345.272C346.643 345.171 346.805 345.124 346.966 345.142C347.127 345.16 347.275 345.241 347.376 345.368L349.326 347.857C361.514 352.905 365.199 352.05 365.456 351.588C365.433 351.228 364.075 350.613 360.464 348.728C356.444 346.622 351.429 344.006 347.864 341.777C347.726 341.69 347.629 341.553 347.592 341.395C347.556 341.237 347.584 341.071 347.67 340.933C347.757 340.796 347.894 340.698 348.052 340.662C348.21 340.626 348.376 340.654 348.514 340.74C349.489 341.351 350.571 341.988 351.721 342.641C366.145 346.808 371.683 345.413 372.586 344.786C372.502 344.741 353.168 338.897 348.861 337.002C348.72 336.933 348.61 336.812 348.556 336.664C348.502 336.515 348.507 336.352 348.57 336.208C348.634 336.063 348.751 335.949 348.896 335.889C349.042 335.828 349.205 335.827 349.352 335.884C350.555 336.411 352.251 337.035 354.204 337.704C358.375 338.441 362.625 338.624 366.844 338.247C365.84 337.564 364.713 337.084 363.525 336.833C357.675 335.238 343.765 331.204 342.66 331.191C339.55 331.191 329.865 335.351 320.96 338.553L319.927 343.892C319.023 350.968 319.777 357.477 321.756 359.726C321.921 359.943 322.132 360.12 322.374 360.245C322.615 360.37 322.882 360.439 323.154 360.448C325.767 360.584 328.351 357.039 333.599 352.567ZM280.917 360.445C274.273 359.555 267.681 358.312 261.17 356.72C260.933 357.994 260.741 359.236 260.585 360.445H280.917ZM413.224 532.886C412.825 532.561 418.164 532.675 344.776 532.675C344.527 534.825 344.463 536.992 344.584 539.152C355.537 539.172 403.461 539.477 421.031 539.477C418.645 537.332 415.899 535.002 413.224 532.886ZM445.598 496.925C439.245 500.998 432.275 504.014 424.957 505.856C424.896 505.885 424.83 505.902 424.762 505.905C421.463 506.729 418.112 507.327 414.732 507.696L417.446 514.007C429.312 516.879 441.708 516.73 453.502 513.575L445.598 496.925ZM379.298 505.375C369.175 508.8 358.553 510.515 347.867 510.448L348.689 514.04C359.412 517.027 370.745 517.043 381.475 514.085L379.298 505.375ZM389.35 501.098C386.469 502.563 383.498 503.843 380.455 504.933L382.73 514.01C393.549 517.914 403.639 523.599 412.584 530.829C413.249 525.272 414.512 519.803 416.351 514.517L413.465 507.809C410.387 508.093 407.296 508.202 404.206 508.134C403.819 507.965 404.261 508.492 383.649 470.675C389.935 502.486 389.763 500.724 389.35 501.098ZM373.873 421.223L382.85 466.651L404.81 506.951C411.186 507.026 417.547 506.329 423.754 504.874L373.873 421.223ZM483.844 532.675H414.921C417.02 534.368 420.982 537.664 422.854 539.5H490.165C488.199 537.098 486.088 534.819 483.844 532.675Z" fill="#081735"/>
<path d="M213.541 259.799L292.357 255.931C291.633 256.523 290.807 256.978 289.92 257.273L213.603 261.021C212.143 261.094 210.716 261.482 209.42 262.158C208.124 262.834 206.989 263.783 206.094 264.938C205.199 266.094 204.564 267.43 204.233 268.854C203.903 270.278 203.884 271.757 204.178 273.189L215.228 326.745L243.542 324.643C243.454 325.062 243.37 325.478 243.285 325.887L215.478 327.951L231.615 406.097L250.65 404.68C251.315 405.33 252.019 405.969 252.762 406.598L306.238 410.95L312.884 409.936C312.985 410.335 313.082 410.732 313.18 411.128L306.875 412.103V424.629L316.248 423.569L316.547 424.769L306.907 425.854L314.249 540.072C314.254 540.23 314.196 540.384 314.09 540.501C313.983 540.618 313.835 540.689 313.677 540.699C313.519 540.709 313.364 540.658 313.243 540.555C313.122 540.453 313.046 540.308 313.03 540.15L305.688 425.955C305.23 425.955 311.213 426.208 238.739 420.326C237.028 420.18 235.421 419.447 234.188 418.252L216.798 540.199C216.786 540.278 216.759 540.355 216.718 540.424C216.677 540.493 216.623 540.554 216.558 540.602C216.494 540.65 216.42 540.685 216.343 540.705C216.265 540.724 216.183 540.729 216.104 540.717C216.024 540.706 215.948 540.679 215.879 540.637C215.809 540.596 215.749 540.542 215.701 540.478C215.653 540.413 215.618 540.34 215.598 540.262C215.578 540.184 215.574 540.103 215.586 540.023L233.135 416.982C232.011 415.275 234.218 424.57 202.972 273.449C202.642 271.842 202.663 270.184 203.034 268.587C203.405 266.99 204.117 265.492 205.12 264.195C206.124 262.899 207.396 261.835 208.85 261.076C210.303 260.317 211.904 259.881 213.541 259.799ZM233.35 414.44C233.671 415.689 234.371 416.807 235.354 417.64C236.337 418.474 237.555 418.982 238.839 419.094C238.839 419.094 305.51 424.72 305.663 424.72V412.129C305.663 412.129 239.515 406.751 239.363 406.751L231.888 407.303L233.35 414.44Z" fill="#081735"/>
<path d="M80.6293 360.444H112.606V354.335C112.607 353.927 112.769 353.537 113.056 353.248C113.343 352.96 113.733 352.797 114.14 352.794H138.915C138.292 352.218 137.842 351.482 137.612 350.666C137.382 349.85 137.382 348.987 137.613 348.171C137.843 347.355 138.295 346.619 138.917 346.044C139.54 345.469 140.31 345.078 141.141 344.913L103.464 257.124C101.926 257.021 100.485 256.334 99.4382 255.202C98.3912 254.071 97.817 252.581 97.8337 251.04C97.8503 249.499 98.4565 248.022 99.5277 246.914C100.599 245.805 102.054 245.149 103.594 245.079L158.655 183.3C158.018 182.279 157.807 181.048 158.068 179.873C158.328 178.698 159.039 177.672 160.048 177.016C161.057 176.36 162.283 176.125 163.463 176.363C164.643 176.601 165.682 177.292 166.358 178.289L175.276 173.833L163.183 161.636C162.594 161.042 162.128 160.338 161.811 159.564C161.494 158.79 161.333 157.962 161.336 157.126C161.34 156.29 161.508 155.462 161.831 154.691C162.154 153.92 162.626 153.22 163.22 152.631C163.814 152.043 164.517 151.577 165.291 151.26C166.065 150.943 166.894 150.782 167.73 150.785C168.566 150.789 169.393 150.957 170.164 151.28C170.935 151.603 171.635 152.075 172.224 152.669L185.104 165.669L215.598 173.979C216.241 174.154 216.826 174.495 217.295 174.967C217.763 175.44 218.099 176.028 218.269 176.672C218.438 177.315 218.435 177.992 218.259 178.635C218.084 179.277 217.742 179.861 217.269 180.33L208.985 188.542C210.02 190.098 210.484 191.966 210.295 193.825C210.106 195.685 209.277 197.421 207.949 198.737C206.622 200.053 204.879 200.866 203.018 201.039C201.156 201.212 199.293 200.733 197.746 199.683L190.271 207.1C189.799 207.569 189.212 207.905 188.569 208.075C187.925 208.244 187.249 208.242 186.607 208.067C185.965 207.892 185.381 207.551 184.912 207.078C184.444 206.605 184.109 206.018 183.94 205.374L175.91 174.892L166.897 179.39C167.209 180.351 167.196 181.389 166.86 182.342C166.524 183.294 165.883 184.11 165.037 184.663C164.191 185.216 163.187 185.475 162.179 185.4C161.171 185.325 160.216 184.921 159.461 184.249L105.128 245.2C106.511 245.492 107.748 246.261 108.622 247.373C109.497 248.484 109.953 249.867 109.912 251.281C109.87 252.694 109.334 254.048 108.396 255.107C107.458 256.165 106.178 256.861 104.78 257.072L142.447 344.841C143.332 344.923 144.174 345.258 144.871 345.808C145.569 346.358 146.093 347.097 146.379 347.938C146.665 348.779 146.702 349.684 146.485 350.546C146.268 351.407 145.806 352.186 145.155 352.791H169.929C170.337 352.793 170.726 352.957 171.014 353.245C171.301 353.534 171.463 353.924 171.463 354.331V360.441H179.507C178.941 359.795 178.629 358.964 178.63 358.104V351.13C176.249 350.964 174.02 349.902 172.392 348.157C170.764 346.412 169.859 344.114 169.859 341.728C169.859 339.341 170.764 337.044 172.392 335.299C174.02 333.554 176.249 332.491 178.63 332.325V325.348C178.63 324.4 179.006 323.49 179.677 322.82C180.347 322.149 181.257 321.773 182.205 321.773H204.406C205.354 321.773 206.263 322.149 206.933 322.82C207.604 323.49 207.981 324.4 207.981 325.348V358.111C207.981 358.97 207.669 359.799 207.103 360.444H412.955C413.237 359.666 413.752 358.993 414.43 358.517C415.108 358.041 415.916 357.784 416.744 357.783H424.736C425.862 357.775 426.946 357.356 427.784 356.604C428.623 355.852 429.157 354.819 429.286 353.701L432.633 321.386H388.586C385.569 321.386 382.676 320.188 380.543 318.054C378.41 315.921 377.211 313.028 377.211 310.011V232.125C377.211 229.108 378.41 226.215 380.543 224.081C382.676 221.948 385.569 220.75 388.586 220.75H499.2C502.217 220.75 505.11 221.948 507.243 224.081C509.377 226.215 510.575 229.108 510.575 232.125V310.027C510.575 313.044 509.377 315.937 507.243 318.071C505.11 320.204 502.217 321.402 499.2 321.402H461.295L465.043 360.444H559.692C561.28 360.444 562.803 361.075 563.925 362.198C565.048 363.321 565.679 364.843 565.679 366.431C565.679 368.019 565.048 369.541 563.925 370.664C562.803 371.787 561.28 372.417 559.692 372.417H494.819C527.131 551.324 525.002 539.224 525.002 540.118C525.002 540.28 524.937 540.435 524.823 540.55C524.708 540.664 524.553 540.729 524.391 540.729H513.559C513.415 540.728 513.276 540.678 513.166 540.586C513.056 540.494 512.982 540.366 512.957 540.225L482.658 372.417H157.657L127.355 540.209C127.329 540.35 127.255 540.477 127.145 540.57C127.035 540.662 126.897 540.712 126.753 540.712H115.924C115.762 540.712 115.607 540.648 115.492 540.533C115.378 540.419 115.313 540.263 115.313 540.101C115.313 539.227 113.279 550.794 145.493 372.417H80.6195C79.0318 372.417 77.5091 371.787 76.3864 370.664C75.2637 369.541 74.633 368.019 74.633 366.431C74.633 364.843 75.2637 363.321 76.3864 362.198C77.5091 361.075 79.0318 360.444 80.6195 360.444H80.6293ZM204.649 199.427C205.6 199.077 206.461 198.521 207.17 197.798C207.878 197.074 208.418 196.202 208.748 195.245C209.078 194.288 209.191 193.269 209.078 192.262C208.966 191.256 208.631 190.287 208.097 189.426L198.633 198.806C199.521 199.365 200.526 199.711 201.569 199.819C202.612 199.926 203.666 199.792 204.649 199.427ZM177.138 173.625L184.239 167.05C184.347 166.937 184.409 166.788 184.41 166.632C184.412 166.475 184.354 166.324 184.249 166.209C184.143 166.094 183.998 166.024 183.842 166.012C183.686 166 183.532 166.048 183.411 166.147L176.309 172.725C176.209 172.837 176.154 172.983 176.155 173.133C176.156 173.284 176.212 173.429 176.313 173.541C176.414 173.652 176.553 173.723 176.703 173.738C176.853 173.754 177.003 173.713 177.125 173.625H177.138ZM162.513 184.21C163.181 184.211 163.834 184.013 164.39 183.642C164.946 183.271 165.379 182.744 165.635 182.127C165.891 181.51 165.958 180.831 165.828 180.175C165.698 179.52 165.376 178.918 164.904 178.446C164.432 177.973 163.83 177.651 163.174 177.521C162.519 177.391 161.84 177.458 161.223 177.714C160.605 177.97 160.078 178.403 159.707 178.959C159.336 179.515 159.139 180.168 159.14 180.837C159.14 181.28 159.229 181.72 159.399 182.129C159.57 182.539 159.82 182.911 160.134 183.225C160.449 183.538 160.822 183.786 161.232 183.955C161.642 184.124 162.082 184.211 162.526 184.21H162.513ZM108.674 251.108C108.674 250.156 108.393 249.225 107.864 248.433C107.336 247.641 106.584 247.024 105.705 246.659C104.826 246.294 103.858 246.198 102.924 246.383C101.991 246.568 101.133 247.026 100.459 247.699C99.7854 248.372 99.3265 249.229 99.1401 250.163C98.9538 251.096 99.0484 252.064 99.4122 252.944C99.7759 253.823 100.392 254.576 101.183 255.105C101.975 255.634 102.905 255.917 103.857 255.918C104.49 255.92 105.117 255.797 105.703 255.556C106.288 255.315 106.82 254.961 107.269 254.514C107.717 254.067 108.074 253.537 108.317 252.952C108.56 252.368 108.686 251.741 108.686 251.108H108.674ZM178.61 333.551C176.547 333.705 174.618 334.633 173.211 336.15C171.803 337.666 171.021 339.659 171.021 341.728C171.021 343.797 171.803 345.789 173.211 347.306C174.618 348.822 176.547 349.751 178.61 349.905V333.551ZM499.2 320.164C501.885 320.162 504.459 319.097 506.36 317.202C508.261 315.306 509.334 312.735 509.343 310.05V232.125C509.344 230.792 509.082 229.473 508.572 228.242C508.063 227.01 507.316 225.892 506.374 224.949C505.432 224.007 504.314 223.259 503.083 222.749C501.852 222.238 500.532 221.975 499.2 221.975H392.639C389.952 221.978 387.375 223.048 385.475 224.948C383.575 226.848 382.506 229.424 382.502 232.112V310.03C382.507 312.717 383.576 315.293 385.476 317.192C387.376 319.092 389.952 320.161 392.639 320.164H499.2ZM463.808 360.444L460.06 321.386H437.895L433.621 360.444H463.808ZM145.399 349.421C145.399 348.753 145.201 348.101 144.83 347.546C144.459 346.992 143.932 346.559 143.316 346.304C142.7 346.048 142.021 345.982 141.367 346.112C140.713 346.242 140.111 346.563 139.64 347.035C139.168 347.507 138.847 348.108 138.716 348.762C138.586 349.417 138.653 350.095 138.908 350.711C139.164 351.328 139.596 351.855 140.151 352.225C140.706 352.596 141.358 352.794 142.025 352.794C142.92 352.794 143.779 352.439 144.413 351.806C145.046 351.174 145.403 350.316 145.405 349.421H145.399ZM113.822 360.444H170.235V354.335C170.235 353.84 173.612 354.01 114.143 354.01C114.057 354.01 113.974 354.044 113.913 354.105C113.853 354.166 113.818 354.248 113.818 354.335L113.822 360.444Z" fill="#081735"/>
</svg>
